<!-- Generated by readme-aura https://github.com/collectioneur/readme-aura -->
<svg width="150" height="44" viewBox="0 0 150 44" xmlns="http://www.w3.org/2000/svg"><defs><clipPath id="satori_bc-id"><rect x="0" y="0" width="150" height="44"/></clipPath></defs><mask id="satori_om-id"><rect x="1" y="1" width="148" height="42" fill="#fff"/><path width="150" height="44" fill="none" stroke="#000" stroke-width="2" d="M0,0 A0,0 0 0 1 0,0 h150 a0,0 0 0 1 0,0 v44 a0,0 0 0 1 0,0 h-150 a0,0 0 0 1 0,0 v-44 A0,0 0 0 1 0,0"/></mask><rect x="0" y="0" width="150" height="44" fill="#080808"/><path width="150" height="44" clip-path="url(#satori_bc-id)" fill="none" stroke="rgba(103,232,249,.3)" stroke-width="2" d="M0,0 A0,0 0 0 1 0,0 h150 a0,0 0 0 1 0,0 v44 a0,0 0 0 1 0,0 h-150 a0,0 0 0 1 0,0 v-44 A0,0 0 0 1 0,0"/><mask id="satori_om-id-0"><rect x="50" y="16" width="51" height="13" fill="#fff"/></mask><g  ><path fill="#67E8F9" d="M54.2 27.1L54.2 27.1Q53.2 27.1 52.4 26.6Q51.6 26.1 51.1 25.2Q50.7 24.3 50.7 23.0L50.7 23.0Q50.7 21.7 51.1 20.8Q51.6 19.9 52.4 19.4Q53.1 18.9 54.2 18.9L54.2 18.9Q54.8 18.9 55.4 19.1Q55.9 19.3 56.3 19.6Q56.8 20.0 57.1 20.4Q57.4 20.9 57.5 21.5L57.5 21.5L56.4 21.5Q56.3 21.1 56.1 20.8Q55.9 20.5 55.6 20.3Q55.3 20.1 55.0 20.0Q54.6 19.8 54.2 19.8L54.2 19.8Q53.5 19.8 52.9 20.2Q52.3 20.6 52.0 21.3Q51.6 22.0 51.6 23.0L51.6 23.0Q51.6 24.0 52.0 24.7Q52.3 25.4 52.9 25.8Q53.5 26.2 54.2 26.2L54.2 26.2Q54.9 26.2 55.4 25.9Q55.9 25.6 56.2 25.1L56.2 25.1Q56.5 24.6 56.5 23.9L56.5 23.9L54.4 23.9L54.4 23.0L57.5 23.0L57.5 23.9Q57.5 24.8 57.1 25.6Q56.7 26.3 55.9 26.7Q55.2 27.1 54.2 27.1ZM60.7 19.0L61.7 19.0L61.7 27L60.7 27L60.7 19.0ZM67.2 19.9L64.7 19.9L64.7 19.0L70.7 19.0L70.7 19.9L68.2 19.9L68.2 27L67.2 27L67.2 19.9ZM74.7 27L73.7 27L73.7 19.0L74.7 19.0L74.7 22.5L78.9 22.5L78.9 19.0L80.0 19.0L80.0 27L78.9 27L78.9 23.4L74.7 23.4L74.7 27ZM86.5 27.1L86.5 27.1Q85.6 27.1 84.9 26.8Q84.2 26.4 83.8 25.7Q83.4 25.1 83.4 24.3L83.4 24.3L83.4 19.0L84.4 19.0L84.4 24.2Q84.4 24.8 84.7 25.2Q84.9 25.7 85.4 25.9Q85.9 26.2 86.5 26.2L86.5 26.2Q87.2 26.2 87.7 25.9Q88.1 25.7 88.4 25.2Q88.6 24.8 88.6 24.2L88.6 24.2L88.6 19.0L89.7 19.0L89.7 24.3Q89.7 25.1 89.3 25.7Q88.9 26.4 88.2 26.8Q87.5 27.1 86.5 27.1ZM96.0 27L93.1 27L93.1 19.0L95.9 19.0Q96.8 19.0 97.3 19.3Q97.9 19.6 98.1 20.1Q98.4 20.5 98.4 21.1L98.4 21.1Q98.4 21.6 98.2 22.0Q98.0 22.3 97.7 22.5Q97.4 22.7 97.1 22.8L97.1 22.8L97.1 22.9Q97.5 22.9 97.8 23.1Q98.2 23.4 98.4 23.8Q98.7 24.2 98.7 24.9L98.7 24.9Q98.7 25.5 98.4 26.0Q98.1 26.4 97.6 26.7Q97.0 27 96.0 27L96.0 27ZM94.1 23.4L94.1 26.1L96.0 26.1Q96.9 26.1 97.3 25.7Q97.7 25.4 97.7 24.9L97.7 24.9Q97.7 24.5 97.5 24.1Q97.3 23.8 96.9 23.6Q96.6 23.4 96.0 23.4L96.0 23.4L94.1 23.4ZM94.1 19.9L94.1 22.5L95.9 22.5Q96.3 22.5 96.6 22.3Q97.0 22.2 97.2 21.9Q97.4 21.6 97.4 21.1L97.4 21.1Q97.4 20.6 97.0 20.3Q96.7 19.9 95.9 19.9L95.9 19.9L94.1 19.9Z "/></g></svg>