<!-- Generated by readme-aura https://github.com/collectioneur/readme-aura -->
<svg width="150" height="44" viewBox="0 0 150 44" xmlns="http://www.w3.org/2000/svg"><defs><clipPath id="satori_bc-id"><rect x="0" y="0" width="150" height="44"/></clipPath></defs><mask id="satori_om-id"><rect x="1" y="1" width="148" height="42" fill="#fff"/><path width="150" height="44" fill="none" stroke="#000" stroke-width="2" d="M0,0 A0,0 0 0 1 0,0 h150 a0,0 0 0 1 0,0 v44 a0,0 0 0 1 0,0 h-150 a0,0 0 0 1 0,0 v-44 A0,0 0 0 1 0,0"/></mask><rect x="0" y="0" width="150" height="44" fill="#080808"/><path width="150" height="44" clip-path="url(#satori_bc-id)" fill="none" stroke="rgba(103,232,249,.3)" stroke-width="2" d="M0,0 A0,0 0 0 1 0,0 h150 a0,0 0 0 1 0,0 v44 a0,0 0 0 1 0,0 h-150 a0,0 0 0 1 0,0 v-44 A0,0 0 0 1 0,0"/><mask id="satori_om-id-0"><rect x="55" y="16" width="41" height="13" fill="#fff"/></mask><g  ><path fill="#67E8F9" d="M60.9 27L56.0 27L56.0 19.0L60.8 19.0L60.8 19.9L57.0 19.9L57.0 22.5L60.6 22.5L60.6 23.4L57.0 23.4L57.0 26.1L60.9 26.1L60.9 27ZM65.1 27L64.1 27L64.1 19.0L65.5 19.0L67.5 24.0Q67.6 24.2 67.7 24.5Q67.7 24.8 67.8 25.1Q67.9 25.4 68.0 25.7L68.0 25.7Q68.1 25.8 68.1 25.9L68.1 25.9Q68.1 25.8 68.1 25.7L68.1 25.7Q68.2 25.4 68.3 25.1Q68.4 24.8 68.5 24.5Q68.6 24.2 68.7 24.0L68.7 24.0L70.6 19.0L72.1 19.0L72.1 27L71.1 27L71.1 22.4Q71.1 22.2 71.1 21.9Q71.1 21.5 71.1 21.2Q71.1 20.9 71.1 20.5L71.1 20.5Q71.1 20.3 71.1 20.1L71.1 20.1Q71.0 20.3 71.0 20.5L71.0 20.5Q70.8 20.9 70.7 21.3Q70.6 21.6 70.5 21.9Q70.4 22.2 70.3 22.4L70.3 22.4L68.5 27L67.6 27L65.8 22.4Q65.7 22.2 65.6 22.0Q65.5 21.7 65.4 21.3Q65.3 21.0 65.2 20.6L65.2 20.6Q65.1 20.3 65.0 20.1L65.0 20.1Q65.0 20.3 65.0 20.4L65.0 20.4Q65.0 20.8 65.0 21.1Q65.0 21.5 65.0 21.8Q65.1 22.2 65.1 22.4L65.1 22.4L65.1 27ZM75.9 27L74.8 27L77.7 19.0L78.9 19.0L81.9 27L80.8 27L80.0 24.8L76.7 24.8L75.9 27ZM77.0 23.9L79.7 23.9L79.1 22.3Q78.9 21.8 78.7 21.2L78.7 21.2Q78.6 20.6 78.3 19.8L78.3 19.8Q78.1 20.6 77.9 21.2L77.9 21.2Q77.7 21.8 77.6 22.3L77.6 22.3L77.0 23.9ZM84.6 19.0L85.6 19.0L85.6 27L84.6 27L84.6 19.0ZM93.8 27L89.1 27L89.1 19.0L90.1 19.0L90.1 26.1L93.8 26.1L93.8 27Z "/></g></svg>