<!-- Generated by readme-aura https://github.com/collectioneur/readme-aura -->
<svg width="800" height="80" viewBox="0 0 800 80" xmlns="http://www.w3.org/2000/svg"><mask id="satori_om-id"><rect x="0" y="0" width="800" height="80" fill="#fff"/></mask><rect x="0" y="0" width="800" height="80" fill="#080808"/><mask id="satori_om-id-0"><rect x="56" y="35" width="77" height="10" fill="#fff"/></mask><g  ><path fill="rgba(255,255,255,.18)" d="M58.2 37.8L56.4 37.8L56.4 37.2L60.8 37.2L60.8 37.8L59.0 37.8L59.0 43L58.2 43L58.2 37.8ZM67.9 43L64.4 43L64.4 37.2L67.9 37.2L67.9 37.8L65.1 37.8L65.1 39.7L67.7 39.7L67.7 40.4L65.1 40.4L65.1 42.3L67.9 42.3L67.9 43ZM74.0 43.1L74.0 43.1Q73.3 43.1 72.7 42.7Q72.1 42.4 71.8 41.7Q71.4 41.0 71.4 40.1L71.4 40.1Q71.4 39.2 71.8 38.5Q72.1 37.8 72.7 37.5Q73.3 37.1 74.0 37.1L74.0 37.1Q74.5 37.1 74.9 37.2Q75.3 37.4 75.6 37.6Q75.9 37.9 76.1 38.2Q76.3 38.6 76.4 39.0L76.4 39.0L75.6 39.0Q75.6 38.7 75.4 38.5Q75.3 38.3 75.1 38.1Q74.8 37.9 74.6 37.9Q74.3 37.8 74.0 37.8L74.0 37.8Q73.5 37.8 73.1 38.1Q72.7 38.3 72.4 38.8Q72.2 39.3 72.2 40.1L72.2 40.1Q72.2 40.8 72.4 41.3Q72.7 41.9 73.1 42.1Q73.5 42.4 74.0 42.4L74.0 42.4Q74.3 42.4 74.6 42.3Q74.8 42.2 75.1 42.1Q75.3 41.9 75.4 41.7Q75.6 41.5 75.6 41.2L75.6 41.2L76.4 41.2Q76.3 41.6 76.1 42.0Q75.9 42.3 75.6 42.6Q75.3 42.8 74.9 42.9Q74.5 43.1 74.0 43.1ZM80.8 43L80.0 43L80.0 37.2L80.8 37.2L80.8 39.7L83.8 39.7L83.8 37.2L84.6 37.2L84.6 43L83.8 43L83.8 40.4L80.8 40.4L80.8 43Z M95.1 43.1L95.1 43.1Q94.4 43.1 94.0 42.9Q93.5 42.7 93.3 42.3Q93 42.0 93.0 41.5L93.0 41.5L93.7 41.5Q93.8 41.8 93.9 42.0Q94.1 42.2 94.4 42.3Q94.7 42.4 95.1 42.4L95.1 42.4Q95.5 42.4 95.8 42.3Q96.1 42.2 96.3 41.9Q96.5 41.7 96.5 41.4L96.5 41.4Q96.5 41.1 96.3 40.9Q96.2 40.8 95.9 40.7Q95.6 40.5 95.3 40.5L95.3 40.5L94.6 40.3Q93.9 40.1 93.5 39.7Q93.1 39.3 93.1 38.7L93.1 38.7Q93.1 38.2 93.4 37.9Q93.7 37.5 94.1 37.3Q94.6 37.1 95.1 37.1L95.1 37.1Q95.7 37.1 96.1 37.3Q96.6 37.5 96.8 37.9Q97.1 38.2 97.1 38.6L97.1 38.6L96.4 38.6Q96.3 38.2 96.0 38.0Q95.6 37.8 95.1 37.8L95.1 37.8Q94.7 37.8 94.4 37.9Q94.2 38.0 94.0 38.2Q93.9 38.4 93.9 38.7L93.9 38.7Q93.9 39.0 94.0 39.2Q94.2 39.4 94.5 39.5Q94.8 39.6 95.0 39.6L95.0 39.6L95.5 39.8Q95.8 39.9 96.1 40.0Q96.3 40.1 96.6 40.3Q96.9 40.4 97.0 40.7Q97.2 41.0 97.2 41.4L97.2 41.4Q97.2 41.9 96.9 42.3Q96.7 42.7 96.2 42.9Q95.8 43.1 95.1 43.1ZM102.4 37.8L100.5 37.8L100.5 37.2L104.9 37.2L104.9 37.8L103.1 37.8L103.1 43L102.4 43L102.4 37.8ZM108.8 43L108.0 43L110.1 37.2L111.0 37.2L113.1 43L112.3 43L111.8 41.4L109.4 41.4L108.8 43ZM109.6 40.7L111.5 40.7L111.1 39.5Q111.0 39.2 110.8 38.7L110.8 38.7Q110.7 38.4 110.6 37.8L110.6 37.8Q110.4 38.4 110.3 38.8L110.3 38.8Q110.1 39.3 110 39.5L110 39.5L109.6 40.7ZM118.9 43.1L118.9 43.1Q118.1 43.1 117.6 42.7Q117.0 42.4 116.6 41.7Q116.3 41.0 116.3 40.1L116.3 40.1Q116.3 39.2 116.6 38.5Q117.0 37.8 117.6 37.5Q118.1 37.1 118.9 37.1L118.9 37.1Q119.3 37.1 119.7 37.2Q120.1 37.4 120.4 37.6Q120.7 37.9 120.9 38.2Q121.2 38.6 121.2 39.0L121.2 39.0L120.5 39.0Q120.4 38.7 120.3 38.5Q120.1 38.3 119.9 38.1Q119.7 37.9 119.4 37.9Q119.2 37.8 118.9 37.8L118.9 37.8Q118.4 37.8 117.9 38.1Q117.5 38.3 117.3 38.8Q117.0 39.3 117.0 40.1L117.0 40.1Q117.0 40.8 117.3 41.3Q117.5 41.9 117.9 42.1Q118.4 42.4 118.9 42.4L118.9 42.4Q119.2 42.4 119.4 42.3Q119.7 42.2 119.9 42.1Q120.1 41.9 120.3 41.7Q120.4 41.5 120.5 41.2L120.5 41.2L121.2 41.2Q121.2 41.6 121.0 42.0Q120.7 42.3 120.4 42.6Q120.1 42.8 119.7 42.9Q119.3 43.1 118.9 43.1ZM125.6 43L124.9 43L124.9 37.2L125.6 37.2L125.6 39.2L125.6 40.2Q125.7 40.1 125.8 40.0L125.8 40.0Q126.0 39.8 126.2 39.5Q126.4 39.3 126.6 39.1L126.6 39.1L128.3 37.2L129.3 37.2L127.0 39.7L129.3 43L128.4 43L126.5 40.2L125.6 41.1L125.6 43Z "/></g><mask id="satori_om-id-1"><rect x="161" y="29" width="460" height="22" fill="#fff"/></mask><defs><clipPath id="satori_bc-id-1-0"><rect x="161" y="29" width="56" height="22"/></clipPath></defs><mask id="satori_om-id-1-0"><rect x="162" y="30" width="54" height="20" fill="#fff"/><path width="56" height="22" fill="none" stroke="#000" stroke-width="2" d="M161,29 A0,0 0 0 1 161,29 h56 a0,0 0 0 1 0,0 v22 a0,0 0 0 1 0,0 h-56 a0,0 0 0 1 0,0 v-22 A0,0 0 0 1 161,29"/></mask><path width="56" height="22" clip-path="url(#satori_bc-id-1-0)" fill="none" stroke="rgba(255,255,255,.1)" stroke-width="2" d="M161,29 A0,0 0 0 1 161,29 h56 a0,0 0 0 1 0,0 v22 a0,0 0 0 1 0,0 h-56 a0,0 0 0 1 0,0 v-22 A0,0 0 0 1 161,29"/><g  ><path fill="rgba(255,255,255,.48)" d="M173.8 44L172.9 44L172.9 36.7L175.4 36.7Q176.2 36.7 176.8 37.0Q177.3 37.3 177.6 37.9Q177.8 38.4 177.8 39.0Q177.8 39.7 177.6 40.2Q177.3 40.7 176.8 41.1Q176.2 41.4 175.4 41.4L175.4 41.4L173.8 41.4L173.8 44ZM173.8 37.5L173.8 40.6L175.3 40.6Q175.9 40.6 176.3 40.4Q176.6 40.2 176.8 39.8Q176.9 39.5 176.9 39.0Q176.9 38.6 176.8 38.3Q176.6 37.9 176.3 37.7Q175.9 37.5 175.3 37.5L175.3 37.5L173.8 37.5ZM179.1 46.0L179.1 46.0L179.3 45.2L179.4 45.2Q179.7 45.3 179.9 45.3Q180.1 45.2 180.3 45.1Q180.4 44.9 180.6 44.5L180.6 44.5L180.7 44.0L178.7 38.5L179.6 38.5L180.8 41.8Q181.0 42.3 181.1 42.8L181.1 42.8Q181.1 43.0 181.2 43.2L181.2 43.2Q181.2 43.0 181.3 42.8L181.3 42.8Q181.4 42.3 181.6 41.8L181.6 41.8L182.8 38.5L183.7 38.5L181.3 44.8Q181.2 45.3 180.9 45.5Q180.7 45.8 180.4 45.9Q180.1 46.1 179.7 46.1L179.7 46.1Q179.5 46.1 179.3 46.0Q179.1 46.0 179.1 46.0ZM185.8 38.5L186.9 38.5L186.9 39.3L185.8 39.3L185.8 42.6Q185.8 43.0 186.0 43.1Q186.1 43.3 186.4 43.3L186.4 43.3Q186.5 43.3 186.7 43.3Q186.8 43.2 186.9 43.2L186.9 43.2L187.1 44.0Q186.9 44.0 186.8 44.0Q186.6 44.1 186.4 44.1L186.4 44.1Q185.7 44.1 185.3 43.7Q184.9 43.3 184.9 42.7L184.9 42.7L184.9 39.3L184.1 39.3L184.1 38.5L184.9 38.5L184.9 37.2L185.8 37.2L185.8 38.5ZM188.9 40.7L188.9 40.7L188.9 44L188.0 44L188.0 36.7L188.9 36.7L188.9 39.5Q189.2 39.0 189.5 38.8L189.5 38.8Q189.9 38.5 190.6 38.5L190.6 38.5Q191.1 38.5 191.5 38.7Q192.0 38.9 192.2 39.4Q192.4 39.8 192.4 40.5L192.4 40.5L192.4 44L191.5 44L191.5 40.6Q191.5 40.0 191.2 39.6Q190.9 39.3 190.3 39.3L190.3 39.3Q189.9 39.3 189.6 39.4Q189.3 39.6 189.1 39.9Q188.9 40.3 188.9 40.7ZM196.2 44.1L196.2 44.1Q195.4 44.1 194.9 43.8Q194.3 43.4 194.0 42.8Q193.7 42.1 193.7 41.3L193.7 41.3Q193.7 40.5 194.0 39.8Q194.3 39.2 194.9 38.8Q195.4 38.5 196.2 38.5L196.2 38.5Q196.9 38.5 197.5 38.8Q198.1 39.2 198.4 39.8Q198.7 40.5 198.7 41.3L198.7 41.3Q198.7 42.1 198.4 42.8Q198.1 43.4 197.5 43.8Q196.9 44.1 196.2 44.1ZM196.2 43.3L196.2 43.3Q196.7 43.3 197.1 43.0Q197.4 42.8 197.6 42.3Q197.8 41.8 197.8 41.3L197.8 41.3Q197.8 40.8 197.6 40.3Q197.4 39.8 197.1 39.5Q196.7 39.3 196.2 39.3L196.2 39.3Q195.6 39.3 195.3 39.5Q194.9 39.8 194.8 40.3Q194.6 40.8 194.6 41.3L194.6 41.3Q194.6 41.8 194.8 42.3Q194.9 42.8 195.3 43.0Q195.6 43.3 196.2 43.3ZM200.8 40.7L200.8 40.7L200.8 44L200.0 44L200.0 38.5L200.8 38.5L200.8 39.6Q201.0 39.0 201.4 38.8L201.4 38.8Q201.9 38.5 202.5 38.5L202.5 38.5Q203.0 38.5 203.4 38.7Q203.9 38.9 204.1 39.4Q204.3 39.8 204.3 40.5L204.3 40.5L204.3 44L203.4 44L203.4 40.6Q203.4 40.0 203.1 39.6Q202.8 39.3 202.2 39.3L202.2 39.3Q201.8 39.3 201.5 39.4Q201.2 39.6 201.0 39.9Q200.8 40.3 200.8 40.7Z "/></g><defs><clipPath id="satori_bc-id-1-1"><rect x="225" y="29" width="62" height="22"/></clipPath></defs><mask id="satori_om-id-1-1"><rect x="226" y="30" width="60" height="20" fill="#fff"/><path width="62" height="22" fill="none" stroke="#000" stroke-width="2" d="M225,29 A0,0 0 0 1 225,29 h62 a0,0 0 0 1 0,0 v22 a0,0 0 0 1 0,0 h-62 a0,0 0 0 1 0,0 v-22 A0,0 0 0 1 225,29"/></mask><path width="62" height="22" clip-path="url(#satori_bc-id-1-1)" fill="none" stroke="rgba(255,255,255,.1)" stroke-width="2" d="M225,29 A0,0 0 0 1 225,29 h62 a0,0 0 0 1 0,0 v22 a0,0 0 0 1 0,0 h-62 a0,0 0 0 1 0,0 v-22 A0,0 0 0 1 225,29"/><g  ><path fill="rgba(255,255,255,.48)" d="M237.8 44L236.9 44L236.9 36.7L239.4 36.7Q240.2 36.7 240.8 37.0Q241.3 37.3 241.6 37.9Q241.8 38.4 241.8 39.0Q241.8 39.7 241.6 40.2Q241.3 40.7 240.8 41.1Q240.2 41.4 239.4 41.4L239.4 41.4L237.8 41.4L237.8 44ZM237.8 37.5L237.8 40.6L239.3 40.6Q239.9 40.6 240.3 40.4Q240.6 40.2 240.8 39.8Q240.9 39.5 240.9 39.0Q240.9 38.6 240.8 38.3Q240.6 37.9 240.3 37.7Q239.9 37.5 239.3 37.5L239.3 37.5L237.8 37.5ZM243.1 46.0L243.1 46.0L243.3 45.2L243.4 45.2Q243.7 45.3 243.9 45.3Q244.1 45.2 244.3 45.1Q244.4 44.9 244.6 44.5L244.6 44.5L244.7 44.0L242.7 38.5L243.6 38.5L244.8 41.8Q245.0 42.3 245.1 42.8L245.1 42.8Q245.1 43.0 245.2 43.2L245.2 43.2Q245.2 43.0 245.3 42.8L245.3 42.8Q245.4 42.3 245.6 41.8L245.6 41.8L246.8 38.5L247.7 38.5L245.3 44.8Q245.2 45.3 244.9 45.5Q244.7 45.8 244.4 45.9Q244.1 46.1 243.7 46.1L243.7 46.1Q243.5 46.1 243.3 46.0Q243.1 46.0 243.1 46.0ZM250.8 37.5L248.5 37.5L248.5 36.7L254.0 36.7L254.0 37.5L251.7 37.5L251.7 44L250.8 44L250.8 37.5ZM257.5 44.1L257.5 44.1Q256.7 44.1 256.2 43.8Q255.6 43.4 255.3 42.8Q255.0 42.1 255.0 41.3L255.0 41.3Q255.0 40.5 255.3 39.8Q255.6 39.2 256.2 38.8Q256.7 38.5 257.5 38.5L257.5 38.5Q258.2 38.5 258.8 38.8Q259.3 39.2 259.6 39.8Q260.0 40.5 260.0 41.3L260.0 41.3Q260.0 42.1 259.6 42.8Q259.3 43.4 258.8 43.8Q258.2 44.1 257.5 44.1ZM257.5 43.3L257.5 43.3Q258.0 43.3 258.4 43.0Q258.7 42.8 258.9 42.3Q259.1 41.8 259.1 41.3L259.1 41.3Q259.1 40.8 258.9 40.3Q258.7 39.8 258.4 39.5Q258.0 39.3 257.5 39.3L257.5 39.3Q256.9 39.3 256.6 39.5Q256.2 39.8 256.0 40.3Q255.9 40.8 255.9 41.3L255.9 41.3Q255.9 41.8 256.0 42.3Q256.2 42.8 256.6 43.0Q256.9 43.3 257.5 43.3ZM262.1 44L261.2 44L261.2 38.5L262.1 38.5L262.1 39.4L262.1 39.4Q262.3 39.0 262.7 38.7Q263.1 38.5 263.6 38.5L263.6 38.5Q263.7 38.5 263.8 38.5Q263.9 38.5 264.0 38.5L264.0 38.5L264.0 39.4Q264.0 39.4 263.8 39.3Q263.6 39.3 263.5 39.3L263.5 39.3Q263.1 39.3 262.8 39.5Q262.5 39.6 262.3 39.9Q262.1 40.2 262.1 40.6L262.1 40.6L262.1 44ZM267.2 44.1L267.2 44.1Q266.5 44.1 265.9 43.8Q265.4 43.4 265.0 42.8Q264.7 42.1 264.7 41.3L264.7 41.3Q264.7 40.5 265.0 39.8Q265.4 39.2 265.9 38.8Q266.5 38.5 267.2 38.5L267.2 38.5Q267.6 38.5 268.0 38.6Q268.3 38.7 268.6 38.9Q268.9 39.1 269.1 39.3Q269.3 39.6 269.4 40.0L269.4 40.0L268.6 40.2Q268.5 40.0 268.4 39.8Q268.3 39.7 268.1 39.5Q267.9 39.4 267.7 39.3Q267.5 39.3 267.2 39.3L267.2 39.3Q266.7 39.3 266.3 39.5Q266.0 39.8 265.8 40.3Q265.6 40.8 265.6 41.3L265.6 41.3Q265.6 41.8 265.8 42.3Q266.0 42.8 266.3 43.0Q266.7 43.3 267.2 43.3L267.2 43.3Q267.5 43.3 267.7 43.3Q267.9 43.2 268.1 43.1Q268.3 42.9 268.4 42.7Q268.5 42.5 268.6 42.3L268.6 42.3L269.4 42.6Q269.3 42.9 269.1 43.2Q268.9 43.5 268.6 43.7Q268.3 43.9 268.0 44.0Q267.6 44.1 267.2 44.1ZM271.6 40.7L271.6 40.7L271.6 44L270.7 44L270.7 36.7L271.6 36.7L271.6 39.5Q271.8 39.0 272.1 38.8L272.1 38.8Q272.6 38.5 273.2 38.5L273.2 38.5Q273.8 38.5 274.2 38.7Q274.6 38.9 274.8 39.4Q275.1 39.8 275.1 40.5L275.1 40.5L275.1 44L274.2 44L274.2 40.6Q274.2 40.0 273.9 39.6Q273.5 39.3 273.0 39.3L273.0 39.3Q272.6 39.3 272.3 39.4Q271.9 39.6 271.8 39.9Q271.6 40.3 271.6 40.7Z "/></g><defs><clipPath id="satori_bc-id-1-2"><rect x="295" y="29" width="57" height="22"/></clipPath></defs><mask id="satori_om-id-1-2"><rect x="296" y="30" width="55" height="20" fill="#fff"/><path width="57" height="22" fill="none" stroke="#000" stroke-width="2" d="M295,29 A0,0 0 0 1 295,29 h57 a0,0 0 0 1 0,0 v22 a0,0 0 0 1 0,0 h-57 a0,0 0 0 1 0,0 v-22 A0,0 0 0 1 295,29"/></mask><path width="57" height="22" clip-path="url(#satori_bc-id-1-2)" fill="none" stroke="rgba(255,255,255,.1)" stroke-width="2" d="M295,29 A0,0 0 0 1 295,29 h57 a0,0 0 0 1 0,0 v22 a0,0 0 0 1 0,0 h-57 a0,0 0 0 1 0,0 v-22 A0,0 0 0 1 295,29"/><g  ><path fill="rgba(255,255,255,.48)" d="M307.8 44L306.9 44L306.9 36.7L308.0 36.7L310.9 41.4Q311.0 41.6 311.2 41.8Q311.4 42.1 311.6 42.5L311.6 42.5Q311.7 42.7 311.8 42.9L311.8 42.9Q311.8 42.7 311.8 42.4L311.8 42.4Q311.7 42.1 311.7 41.7Q311.7 41.4 311.7 41.2L311.7 41.2L311.7 36.7L312.7 36.7L312.7 44L311.6 44L308.9 39.9Q308.7 39.6 308.6 39.3Q308.4 39.0 308.1 38.5L308.1 38.5Q308.0 38.2 307.7 37.8L307.7 37.8Q307.8 38.2 307.8 38.5L307.8 38.5Q307.8 39.0 307.8 39.3Q307.8 39.7 307.8 39.8L307.8 39.8L307.8 44ZM316.2 44.1L316.2 44.1Q315.6 44.1 315.2 43.8Q314.8 43.6 314.5 43.2Q314.3 42.7 314.3 42.0L314.3 42.0L314.3 38.5L315.2 38.5L315.2 41.9Q315.2 42.6 315.5 42.9Q315.8 43.3 316.4 43.3L316.4 43.3Q316.8 43.3 317.1 43.1Q317.4 42.9 317.6 42.6Q317.8 42.3 317.8 41.8L317.8 41.8L317.8 38.5L318.7 38.5L318.7 44L317.8 44L317.8 43.0Q317.6 43.5 317.2 43.8L317.2 43.8Q316.8 44.1 316.2 44.1ZM321.1 44L320.2 44L320.2 38.5L321.1 38.5L321.1 39.5Q321.2 39.2 321.4 39.0L321.4 39.0Q321.6 38.7 321.9 38.6Q322.3 38.4 322.6 38.4L322.6 38.4Q323.2 38.4 323.6 38.8L323.6 38.8Q323.9 39.1 324.0 39.6L324.0 39.6Q324.1 39.3 324.3 39.1L324.3 39.1Q324.5 38.8 324.9 38.6Q325.3 38.4 325.7 38.4L325.7 38.4Q326.2 38.4 326.6 38.6Q327.0 38.9 327.2 39.3Q327.4 39.7 327.4 40.3L327.4 40.3L327.4 44L326.6 44L326.6 40.3Q326.6 39.8 326.2 39.5Q325.9 39.2 325.5 39.2L325.5 39.2Q325.1 39.2 324.8 39.4Q324.6 39.6 324.4 39.8Q324.3 40.1 324.3 40.4L324.3 40.4L324.3 44L323.4 44L323.4 40.3Q323.4 39.8 323.1 39.5Q322.8 39.2 322.3 39.2L322.3 39.2Q322.0 39.2 321.7 39.4Q321.4 39.5 321.3 39.8Q321.1 40.1 321.1 40.6L321.1 40.6L321.1 44ZM330.0 44L329.1 44L329.1 36.7L331.6 36.7Q332.4 36.7 333.0 37.0Q333.5 37.3 333.8 37.9Q334.1 38.4 334.1 39.0Q334.1 39.7 333.8 40.2Q333.5 40.7 333.0 41.1Q332.4 41.4 331.6 41.4L331.6 41.4L330.0 41.4L330.0 44ZM330.0 37.5L330.0 40.6L331.5 40.6Q332.1 40.6 332.5 40.4Q332.8 40.2 333.0 39.8Q333.1 39.5 333.1 39.0Q333.1 38.6 333.0 38.3Q332.8 37.9 332.5 37.7Q332.1 37.5 331.5 37.5L331.5 37.5L330.0 37.5ZM335.3 46.0L335.3 46.0L335.5 45.2L335.6 45.2Q335.9 45.3 336.1 45.3Q336.3 45.2 336.5 45.1Q336.7 44.9 336.8 44.5L336.8 44.5L336.9 44.0L334.9 38.5L335.8 38.5L337.0 41.8Q337.2 42.3 337.3 42.8L337.3 42.8Q337.3 43.0 337.4 43.2L337.4 43.2Q337.5 43.0 337.5 42.8L337.5 42.8Q337.6 42.3 337.8 41.8L337.8 41.8L339.0 38.5L340.0 38.5L337.6 44.8Q337.4 45.3 337.2 45.5Q336.9 45.8 336.6 45.9Q336.3 46.1 335.9 46.1L335.9 46.1Q335.7 46.1 335.5 46.0Q335.3 46.0 335.3 46.0Z "/></g><defs><clipPath id="satori_bc-id-1-3"><rect x="360" y="29" width="64" height="22"/></clipPath></defs><mask id="satori_om-id-1-3"><rect x="361" y="30" width="62" height="20" fill="#fff"/><path width="64" height="22" fill="none" stroke="#000" stroke-width="2" d="M360,29 A0,0 0 0 1 360,29 h64 a0,0 0 0 1 0,0 v22 a0,0 0 0 1 0,0 h-64 a0,0 0 0 1 0,0 v-22 A0,0 0 0 1 360,29"/></mask><path width="64" height="22" clip-path="url(#satori_bc-id-1-3)" fill="none" stroke="rgba(255,255,255,.1)" stroke-width="2" d="M360,29 A0,0 0 0 1 360,29 h64 a0,0 0 0 1 0,0 v22 a0,0 0 0 1 0,0 h-64 a0,0 0 0 1 0,0 v-22 A0,0 0 0 1 360,29"/><g  ><path fill="rgba(255,255,255,.48)" d="M372.3 44L371.3 44L373.9 40.3L371.4 36.7L372.5 36.7L373.6 38.3Q373.8 38.6 373.9 38.8Q374.1 39.1 374.2 39.3L374.2 39.3Q374.3 39.5 374.4 39.7L374.4 39.7Q374.5 39.5 374.6 39.3L374.6 39.3Q374.7 39.1 374.9 38.8Q375.1 38.6 375.3 38.3L375.3 38.3L376.4 36.7L377.4 36.7L375.0 40.2L377.5 44L376.5 44L375.2 42.2Q375.0 41.9 374.9 41.6Q374.7 41.4 374.6 41.2L374.6 41.2Q374.5 41.1 374.4 40.9L374.4 40.9Q374.3 41.0 374.2 41.2L374.2 41.2Q374.1 41.4 374.0 41.6Q373.8 41.8 373.6 42.2L373.6 42.2L372.3 44ZM381.7 44.1L381.7 44.1Q380.7 44.1 380.0 43.6Q379.2 43.2 378.8 42.4Q378.4 41.5 378.4 40.4L378.4 40.4Q378.4 39.2 378.8 38.4Q379.2 37.5 380.0 37.1Q380.7 36.6 381.6 36.6L381.6 36.6Q382.2 36.6 382.7 36.8Q383.2 37.0 383.6 37.3Q384.0 37.6 384.2 38.0Q384.5 38.5 384.6 39.0L384.6 39.0L383.6 39.0Q383.5 38.7 383.3 38.4Q383.2 38.1 382.9 37.9Q382.7 37.7 382.3 37.6Q382.0 37.5 381.6 37.5L381.6 37.5Q381.0 37.5 380.5 37.8Q379.9 38.1 379.6 38.8Q379.3 39.4 379.3 40.4L379.3 40.4Q379.3 41.3 379.6 41.9Q379.9 42.6 380.5 42.9Q381.0 43.2 381.7 43.2L381.7 43.2Q382.3 43.2 382.8 43.0Q383.2 42.7 383.5 42.2L383.5 42.2Q383.7 41.8 383.7 41.2L383.7 41.2L381.9 41.2L381.9 40.3L384.7 40.3L384.7 41.1Q384.7 42.0 384.3 42.7Q383.9 43.4 383.2 43.7Q382.5 44.1 381.7 44.1ZM388.8 44L386.2 44L386.2 36.7L388.7 36.7Q389.5 36.7 390.0 37.0Q390.5 37.2 390.7 37.7Q391.0 38.1 391.0 38.7L391.0 38.7Q391.0 39.1 390.8 39.4Q390.6 39.7 390.4 39.9Q390.1 40.1 389.8 40.2L389.8 40.2L389.8 40.3Q390.1 40.3 390.5 40.5Q390.8 40.7 391.0 41.1Q391.3 41.5 391.3 42.1L391.3 42.1Q391.3 42.6 391.0 43.0Q390.8 43.5 390.2 43.7Q389.7 44 388.8 44L388.8 44ZM387.1 40.7L387.1 43.2L388.8 43.2Q389.6 43.2 390.0 42.9Q390.4 42.5 390.4 42.1L390.4 42.1Q390.4 41.7 390.2 41.4Q390.0 41.1 389.7 40.9Q389.3 40.7 388.8 40.7L388.8 40.7L387.1 40.7ZM387.1 37.5L387.1 39.9L388.7 39.9Q389.1 39.9 389.4 39.8Q389.7 39.6 389.9 39.3Q390.1 39.0 390.1 38.7L390.1 38.7Q390.1 38.2 389.8 37.9Q389.4 37.5 388.7 37.5L388.7 37.5L387.1 37.5ZM394.8 44.1L394.8 44.1Q394.1 44.1 393.5 43.8Q393.0 43.4 392.6 42.8Q392.3 42.1 392.3 41.3L392.3 41.3Q392.3 40.5 392.6 39.8Q393.0 39.2 393.5 38.8Q394.1 38.5 394.8 38.5L394.8 38.5Q395.6 38.5 396.1 38.8Q396.7 39.2 397.0 39.8Q397.3 40.5 397.3 41.3L397.3 41.3Q397.3 42.1 397.0 42.8Q396.7 43.4 396.1 43.8Q395.6 44.1 394.8 44.1ZM394.8 43.3L394.8 43.3Q395.4 43.3 395.7 43.0Q396.1 42.8 396.3 42.3Q396.4 41.8 396.4 41.3L396.4 41.3Q396.4 40.8 396.3 40.3Q396.1 39.8 395.7 39.5Q395.4 39.3 394.8 39.3L394.8 39.3Q394.3 39.3 393.9 39.5Q393.6 39.8 393.4 40.3Q393.2 40.8 393.2 41.3L393.2 41.3Q393.2 41.8 393.4 42.3Q393.6 42.8 393.9 43.0Q394.3 43.3 394.8 43.3ZM400.8 44.1L400.8 44.1Q400.1 44.1 399.5 43.8Q399.0 43.4 398.6 42.8Q398.3 42.1 398.3 41.3L398.3 41.3Q398.3 40.5 398.6 39.8Q399.0 39.2 399.5 38.8Q400.1 38.5 400.8 38.5L400.8 38.5Q401.6 38.5 402.1 38.8Q402.7 39.2 403.0 39.8Q403.3 40.5 403.3 41.3L403.3 41.3Q403.3 42.1 403.0 42.8Q402.7 43.4 402.1 43.8Q401.6 44.1 400.8 44.1ZM400.8 43.3L400.8 43.3Q401.4 43.3 401.7 43.0Q402.1 42.8 402.3 42.3Q402.4 41.8 402.4 41.3L402.4 41.3Q402.4 40.8 402.3 40.3Q402.1 39.8 401.7 39.5Q401.4 39.3 400.8 39.3L400.8 39.3Q400.3 39.3 399.9 39.5Q399.6 39.8 399.4 40.3Q399.2 40.8 399.2 41.3L399.2 41.3Q399.2 41.8 399.4 42.3Q399.6 42.8 399.9 43.0Q400.3 43.3 400.8 43.3ZM406.4 44.1L406.4 44.1Q405.9 44.1 405.4 44.0Q405.0 43.8 404.7 43.5Q404.4 43.1 404.3 42.7L404.3 42.7L405.2 42.5Q405.3 42.9 405.6 43.1Q405.9 43.3 406.4 43.3L406.4 43.3Q407.0 43.3 407.3 43.1Q407.7 42.9 407.7 42.5L407.7 42.5Q407.7 42.2 407.5 42.0Q407.3 41.9 406.9 41.8L406.9 41.8L406.0 41.6Q405.2 41.4 404.9 41.0Q404.5 40.6 404.5 40.1L404.5 40.1Q404.5 39.6 404.8 39.2Q405.0 38.9 405.5 38.7Q406.0 38.5 406.5 38.5L406.5 38.5Q407.1 38.5 407.5 38.6Q407.9 38.8 408.1 39.1Q408.4 39.4 408.5 39.8L408.5 39.8L407.7 40.0Q407.6 39.7 407.3 39.5Q407.1 39.2 406.5 39.2L406.5 39.2Q406.0 39.2 405.7 39.4Q405.4 39.7 405.4 40.0L405.4 40.0Q405.4 40.3 405.6 40.5Q405.8 40.7 406.3 40.8L406.3 40.8L407.1 41.0Q407.9 41.2 408.2 41.5Q408.6 41.9 408.6 42.5L408.6 42.5Q408.6 42.9 408.3 43.3Q408.1 43.7 407.6 43.9Q407.1 44.1 406.4 44.1ZM410.9 38.5L412.0 38.5L412.0 39.3L410.9 39.3L410.9 42.6Q410.9 43.0 411.0 43.1Q411.2 43.3 411.5 43.3L411.5 43.3Q411.6 43.3 411.7 43.3Q411.9 43.2 412.0 43.2L412.0 43.2L412.2 44.0Q412.0 44.0 411.9 44.0Q411.7 44.1 411.5 44.1L411.5 44.1Q410.8 44.1 410.4 43.7Q410.0 43.3 410.0 42.7L410.0 42.7L410.0 39.3L409.2 39.3L409.2 38.5L410.0 38.5L410.0 37.2L410.9 37.2L410.9 38.5Z "/></g><defs><clipPath id="satori_bc-id-1-4"><rect x="432" y="29" width="80" height="22"/></clipPath></defs><mask id="satori_om-id-1-4"><rect x="433" y="30" width="78" height="20" fill="#fff"/><path width="80" height="22" fill="none" stroke="#000" stroke-width="2" d="M432,29 A0,0 0 0 1 432,29 h80 a0,0 0 0 1 0,0 v22 a0,0 0 0 1 0,0 h-80 a0,0 0 0 1 0,0 v-22 A0,0 0 0 1 432,29"/></mask><path width="80" height="22" clip-path="url(#satori_bc-id-1-4)" fill="none" stroke="rgba(255,255,255,.1)" stroke-width="2" d="M432,29 A0,0 0 0 1 432,29 h80 a0,0 0 0 1 0,0 v22 a0,0 0 0 1 0,0 h-80 a0,0 0 0 1 0,0 v-22 A0,0 0 0 1 432,29"/><g  ><path fill="rgba(255,255,255,.48)" d="M446.2 44.1L446.2 44.1Q445.4 44.1 444.8 43.9Q444.3 43.6 443.9 43.2Q443.6 42.7 443.6 42.1L443.6 42.1L444.5 42.1Q444.6 42.5 444.8 42.8Q445.0 43.0 445.4 43.2Q445.8 43.3 446.2 43.3L446.2 43.3Q446.7 43.3 447.1 43.1Q447.5 43.0 447.7 42.7Q447.9 42.4 447.9 42.0L447.9 42.0Q447.9 41.7 447.7 41.4Q447.6 41.2 447.2 41.1Q446.9 40.9 446.5 40.8L446.5 40.8L445.6 40.6Q444.7 40.3 444.3 39.9Q443.8 39.4 443.8 38.7L443.8 38.7Q443.8 38.1 444.1 37.6Q444.4 37.1 445.0 36.9Q445.6 36.6 446.3 36.6L446.3 36.6Q447.0 36.6 447.5 36.9Q448.1 37.1 448.4 37.6Q448.7 38.0 448.8 38.6L448.8 38.6L447.8 38.6Q447.8 38.0 447.3 37.7Q446.9 37.4 446.2 37.4L446.2 37.4Q445.8 37.4 445.4 37.6Q445.1 37.8 444.9 38.0Q444.7 38.3 444.7 38.6L444.7 38.6Q444.7 39.0 444.9 39.2Q445.1 39.5 445.5 39.6Q445.8 39.7 446.1 39.8L446.1 39.8L446.8 40.0Q447.1 40.1 447.4 40.2Q447.8 40.4 448.1 40.6Q448.4 40.8 448.6 41.2Q448.8 41.5 448.8 42.0L448.8 42.0Q448.8 42.6 448.5 43.1Q448.2 43.6 447.6 43.8Q447.0 44.1 446.2 44.1ZM452.4 44.1L452.4 44.1Q451.7 44.1 451.1 43.8Q450.5 43.4 450.2 42.8Q449.9 42.1 449.9 41.3L449.9 41.3Q449.9 40.5 450.2 39.8Q450.5 39.2 451.1 38.8Q451.7 38.5 452.4 38.5L452.4 38.5Q452.8 38.5 453.2 38.6Q453.5 38.7 453.8 38.9Q454.1 39.1 454.3 39.3Q454.5 39.6 454.6 40.0L454.6 40.0L453.8 40.2Q453.7 40.0 453.6 39.8Q453.5 39.7 453.3 39.5Q453.1 39.4 452.9 39.3Q452.7 39.3 452.4 39.3L452.4 39.3Q451.9 39.3 451.5 39.5Q451.2 39.8 451.0 40.3Q450.8 40.8 450.8 41.3L450.8 41.3Q450.8 41.8 451.0 42.3Q451.2 42.8 451.5 43.0Q451.9 43.3 452.4 43.3L452.4 43.3Q452.7 43.3 452.9 43.3Q453.1 43.2 453.3 43.1Q453.5 42.9 453.6 42.7Q453.7 42.5 453.8 42.3L453.8 42.3L454.6 42.6Q454.5 42.9 454.3 43.2Q454.1 43.5 453.8 43.7Q453.5 43.9 453.2 44.0Q452.8 44.1 452.4 44.1ZM456.8 44L455.9 44L455.9 38.5L456.8 38.5L456.8 44ZM456.3 37.6L456.3 37.6Q456.1 37.6 455.9 37.5Q455.7 37.3 455.7 37.1L455.7 37.1Q455.7 36.8 455.9 36.7Q456.1 36.5 456.3 36.5L456.3 36.5Q456.6 36.5 456.8 36.7Q457.0 36.8 457.0 37.1L457.0 37.1Q457.0 37.3 456.8 37.5Q456.6 37.6 456.3 37.6ZM459.2 44L458.3 44L458.3 36.7L459.2 36.7L459.2 40.9L459.3 40.9L461.6 38.5L462.7 38.5L460.4 40.9L462.9 44L461.8 44L459.8 41.4L459.2 42.0L459.2 44ZM464.7 44L463.8 44L463.8 38.5L464.7 38.5L464.7 44ZM464.3 37.6L464.3 37.6Q464.0 37.6 463.8 37.5Q463.6 37.3 463.6 37.1L463.6 37.1Q463.6 36.8 463.8 36.7Q464.0 36.5 464.3 36.5L464.3 36.5Q464.5 36.5 464.7 36.7Q464.9 36.8 464.9 37.1L464.9 37.1Q464.9 37.3 464.7 37.5Q464.5 37.6 464.3 37.6ZM467.3 38.5L468.4 38.5L468.4 39.3L467.3 39.3L467.3 42.6Q467.3 43.0 467.4 43.1Q467.6 43.3 467.9 43.3L467.9 43.3Q468.0 43.3 468.1 43.3Q468.2 43.2 468.4 43.2L468.4 43.2L468.5 44.0Q468.4 44.0 468.2 44.0Q468.0 44.1 467.9 44.1L467.9 44.1Q467.2 44.1 466.8 43.7Q466.4 43.3 466.4 42.7L466.4 42.7L466.4 39.3L465.6 39.3L465.6 38.5L466.4 38.5L466.4 37.2L467.3 37.2L467.3 38.5ZM469.4 40.5L472.6 40.5L472.6 41.3L469.4 41.3L469.4 40.5ZM478.5 44L474.2 44L474.2 36.7L475.1 36.7L475.1 43.2L478.5 43.2L478.5 44ZM482.1 44.1L482.1 44.1Q481.3 44.1 480.7 43.8Q480.1 43.4 479.8 42.8Q479.5 42.2 479.5 41.3Q479.5 40.5 479.8 39.8Q480.1 39.2 480.7 38.8Q481.2 38.5 482.0 38.5L482.0 38.5Q482.4 38.5 482.8 38.6Q483.2 38.8 483.6 39.1Q483.9 39.4 484.1 39.9Q484.3 40.4 484.3 41.2L484.3 41.2L484.3 41.6L480.4 41.6Q480.4 42.1 480.6 42.5L480.6 42.5Q480.8 42.9 481.2 43.1Q481.6 43.3 482.1 43.3L482.1 43.3Q482.4 43.3 482.6 43.2Q482.9 43.2 483.1 43.0Q483.3 42.8 483.4 42.5L483.4 42.5L484.2 42.7Q484.1 43.1 483.8 43.5Q483.5 43.8 483.1 43.9Q482.6 44.1 482.1 44.1ZM480.4 40.8L480.4 40.8L483.4 40.8Q483.4 40.5 483.3 40.1L483.3 40.1Q483.1 39.7 482.8 39.5Q482.4 39.3 482.0 39.3Q481.5 39.3 481.1 39.5Q480.8 39.7 480.6 40.1L480.6 40.1Q480.4 40.5 480.4 40.8ZM487.1 44.1L487.1 44.1Q486.6 44.1 486.2 43.9Q485.8 43.7 485.5 43.4Q485.3 43.0 485.3 42.4L485.3 42.4Q485.3 42.0 485.4 41.7Q485.6 41.4 485.9 41.2Q486.2 41.1 486.6 41.0Q487.0 40.9 487.4 40.8L487.4 40.8Q487.9 40.8 488.2 40.7Q488.5 40.7 488.6 40.6Q488.8 40.5 488.8 40.3L488.8 40.3L488.8 40.3Q488.8 40.0 488.7 39.7Q488.5 39.5 488.3 39.4Q488.0 39.2 487.6 39.2L487.6 39.2Q487.2 39.2 487.0 39.4Q486.7 39.5 486.5 39.7Q486.3 39.9 486.3 40.0L486.3 40.0L485.4 39.8Q485.6 39.3 486.0 39.0Q486.3 38.7 486.8 38.6Q487.2 38.5 487.6 38.5L487.6 38.5Q487.9 38.5 488.2 38.5Q488.6 38.6 488.9 38.8Q489.2 39.0 489.4 39.4Q489.7 39.8 489.7 40.4L489.7 40.4L489.7 44L488.8 44L488.8 43.3L488.7 43.3Q488.6 43.4 488.4 43.7Q488.2 43.9 487.9 44.0Q487.6 44.1 487.1 44.1ZM487.3 43.4L487.3 43.4Q487.8 43.4 488.1 43.2Q488.4 43.0 488.6 42.7Q488.8 42.4 488.8 42.0L488.8 42.0L488.8 41.3Q488.7 41.3 488.5 41.4Q488.4 41.4 488.1 41.5Q487.9 41.5 487.7 41.5Q487.5 41.6 487.3 41.6L487.3 41.6Q487.0 41.6 486.7 41.7Q486.5 41.8 486.3 42.0Q486.1 42.2 486.1 42.5L486.1 42.5Q486.1 42.8 486.3 43.0Q486.4 43.2 486.7 43.3Q486.9 43.4 487.3 43.4ZM492.1 44L491.2 44L491.2 38.5L492.1 38.5L492.1 39.4L492.1 39.4Q492.3 39.0 492.7 38.7Q493.0 38.5 493.5 38.5L493.5 38.5Q493.6 38.5 493.8 38.5Q493.9 38.5 494.0 38.5L494.0 38.5L494.0 39.4Q493.9 39.4 493.8 39.3Q493.6 39.3 493.4 39.3L493.4 39.3Q493.1 39.3 492.7 39.5Q492.4 39.6 492.3 39.9Q492.1 40.2 492.1 40.6L492.1 40.6L492.1 44ZM495.8 40.7L495.8 40.7L495.8 44L495.0 44L495.0 38.5L495.8 38.5L495.8 39.6Q496.0 39.0 496.4 38.8L496.4 38.8Q496.9 38.5 497.5 38.5L497.5 38.5Q498.0 38.5 498.5 38.7Q498.9 38.9 499.1 39.4Q499.3 39.8 499.3 40.5L499.3 40.5L499.3 44L498.5 44L498.5 40.6Q498.5 40.0 498.1 39.6Q497.8 39.3 497.2 39.3L497.2 39.3Q496.8 39.3 496.5 39.4Q496.2 39.6 496.0 39.9Q495.8 40.3 495.8 40.7Z "/></g><defs><clipPath id="satori_bc-id-1-5"><rect x="520" y="29" width="57" height="22"/></clipPath></defs><mask id="satori_om-id-1-5"><rect x="521" y="30" width="55" height="20" fill="#fff"/><path width="57" height="22" fill="none" stroke="#000" stroke-width="2" d="M520,29 A0,0 0 0 1 520,29 h57 a0,0 0 0 1 0,0 v22 a0,0 0 0 1 0,0 h-57 a0,0 0 0 1 0,0 v-22 A0,0 0 0 1 520,29"/></mask><path width="57" height="22" clip-path="url(#satori_bc-id-1-5)" fill="none" stroke="rgba(255,255,255,.1)" stroke-width="2" d="M520,29 A0,0 0 0 1 520,29 h57 a0,0 0 0 1 0,0 v22 a0,0 0 0 1 0,0 h-57 a0,0 0 0 1 0,0 v-22 A0,0 0 0 1 520,29"/><g  ><path fill="rgba(255,255,255,.48)" d="M534.1 44L534.1 44L531.9 44L531.9 36.7L534.2 36.7Q535.3 36.7 536.1 37.2Q536.8 37.6 537.2 38.4Q537.6 39.2 537.6 40.3L537.6 40.3Q537.6 41.5 537.2 42.3Q536.8 43.1 536.0 43.6Q535.3 44 534.1 44ZM532.8 37.5L532.8 43.2L534.1 43.2Q535.0 43.2 535.6 42.8Q536.1 42.5 536.4 41.9Q536.7 41.2 536.7 40.3L536.7 40.3Q536.7 39.5 536.4 38.8Q536.2 38.2 535.6 37.9Q535.0 37.5 534.2 37.5L534.2 37.5L532.8 37.5ZM541.2 44.1L541.2 44.1Q540.5 44.1 539.9 43.8Q539.3 43.4 539.0 42.8Q538.7 42.1 538.7 41.3L538.7 41.3Q538.7 40.5 539.0 39.8Q539.3 39.2 539.9 38.8Q540.5 38.5 541.2 38.5L541.2 38.5Q542.0 38.5 542.5 38.8Q543.1 39.2 543.4 39.8Q543.7 40.5 543.7 41.3L543.7 41.3Q543.7 42.1 543.4 42.8Q543.1 43.4 542.5 43.8Q542.0 44.1 541.2 44.1ZM541.2 43.3L541.2 43.3Q541.8 43.3 542.1 43.0Q542.5 42.8 542.6 42.3Q542.8 41.8 542.8 41.3L542.8 41.3Q542.8 40.8 542.6 40.3Q542.5 39.8 542.1 39.5Q541.8 39.3 541.2 39.3L541.2 39.3Q540.7 39.3 540.3 39.5Q540.0 39.8 539.8 40.3Q539.6 40.8 539.6 41.3L539.6 41.3Q539.6 41.8 539.8 42.3Q540.0 42.8 540.3 43.0Q540.7 43.3 541.2 43.3ZM547.2 44.1L547.2 44.1Q546.5 44.1 545.9 43.8Q545.3 43.4 545.0 42.8Q544.7 42.1 544.7 41.3L544.7 41.3Q544.7 40.5 545.0 39.8Q545.3 39.2 545.9 38.8Q546.5 38.5 547.2 38.5L547.2 38.5Q547.6 38.5 548.0 38.6Q548.3 38.7 548.6 38.9Q548.9 39.1 549.1 39.3Q549.3 39.6 549.4 40.0L549.4 40.0L548.6 40.2Q548.5 40.0 548.4 39.8Q548.3 39.7 548.1 39.5Q547.9 39.4 547.7 39.3Q547.5 39.3 547.2 39.3L547.2 39.3Q546.7 39.3 546.3 39.5Q546.0 39.8 545.8 40.3Q545.6 40.8 545.6 41.3L545.6 41.3Q545.6 41.8 545.8 42.3Q546.0 42.8 546.3 43.0Q546.7 43.3 547.2 43.3L547.2 43.3Q547.5 43.3 547.7 43.3Q547.9 43.2 548.1 43.1Q548.3 42.9 548.4 42.7Q548.5 42.5 548.6 42.3L548.6 42.3L549.4 42.6Q549.3 42.9 549.1 43.2Q548.9 43.5 548.6 43.7Q548.3 43.9 548.0 44.0Q547.6 44.1 547.2 44.1ZM551.6 44L550.7 44L550.7 36.7L551.6 36.7L551.6 40.9L551.7 40.9L554.0 38.5L555.1 38.5L552.8 40.9L555.3 44L554.1 44L552.2 41.4L551.6 42.0L551.6 44ZM558.5 44.1L558.5 44.1Q557.7 44.1 557.1 43.8Q556.5 43.4 556.2 42.8Q555.9 42.2 555.9 41.3Q555.9 40.5 556.2 39.8Q556.5 39.2 557.1 38.8Q557.6 38.5 558.4 38.5L558.4 38.5Q558.8 38.5 559.2 38.6Q559.7 38.8 560.0 39.1Q560.3 39.4 560.6 39.9Q560.8 40.4 560.8 41.2L560.8 41.2L560.8 41.6L556.8 41.6Q556.8 42.1 557.0 42.5L557.0 42.5Q557.2 42.9 557.6 43.1Q558.0 43.3 558.5 43.3L558.5 43.3Q558.8 43.3 559.1 43.2Q559.3 43.2 559.5 43.0Q559.7 42.8 559.8 42.5L559.8 42.5L560.7 42.7Q560.5 43.1 560.2 43.5Q559.9 43.8 559.5 43.9Q559.0 44.1 558.5 44.1ZM556.8 40.8L556.8 40.8L559.9 40.8Q559.8 40.5 559.7 40.1L559.7 40.1Q559.5 39.7 559.2 39.5Q558.9 39.3 558.4 39.3Q557.9 39.3 557.5 39.5Q557.2 39.7 557.0 40.1L557.0 40.1Q556.8 40.5 556.8 40.8ZM562.9 44L562.0 44L562.0 38.5L562.9 38.5L562.9 39.4L562.9 39.4Q563.1 39.0 563.5 38.7Q563.9 38.5 564.3 38.5L564.3 38.5Q564.4 38.5 564.6 38.5Q564.7 38.5 564.8 38.5L564.8 38.5L564.8 39.4Q564.7 39.4 564.6 39.3Q564.4 39.3 564.3 39.3L564.3 39.3Q563.9 39.3 563.6 39.5Q563.2 39.6 563.1 39.9Q562.9 40.2 562.9 40.6L562.9 40.6L562.9 44Z "/></g><defs><clipPath id="satori_bc-id-1-6"><rect x="585" y="29" width="36" height="22"/></clipPath></defs><mask id="satori_om-id-1-6"><rect x="586" y="30" width="34" height="20" fill="#fff"/><path width="36" height="22" fill="none" stroke="#000" stroke-width="2" d="M585,29 A0,0 0 0 1 585,29 h36 a0,0 0 0 1 0,0 v22 a0,0 0 0 1 0,0 h-36 a0,0 0 0 1 0,0 v-22 A0,0 0 0 1 585,29"/></mask><path width="36" height="22" clip-path="url(#satori_bc-id-1-6)" fill="none" stroke="rgba(255,255,255,.1)" stroke-width="2" d="M585,29 A0,0 0 0 1 585,29 h36 a0,0 0 0 1 0,0 v22 a0,0 0 0 1 0,0 h-36 a0,0 0 0 1 0,0 v-22 A0,0 0 0 1 585,29"/><g  ><path fill="rgba(255,255,255,.48)" d="M599.9 44.1L599.9 44.1Q598.9 44.1 598.1 43.6Q597.4 43.2 597.0 42.4Q596.6 41.5 596.6 40.4L596.6 40.4Q596.6 39.2 597.0 38.4Q597.4 37.5 598.1 37.1Q598.9 36.6 599.8 36.6L599.8 36.6Q600.4 36.6 600.9 36.8Q601.4 37.0 601.8 37.3Q602.2 37.6 602.4 38.0Q602.7 38.5 602.8 39.0L602.8 39.0L601.8 39.0Q601.7 38.7 601.5 38.4Q601.3 38.1 601.1 37.9Q600.8 37.7 600.5 37.6Q600.2 37.5 599.8 37.5L599.8 37.5Q599.2 37.5 598.6 37.8Q598.1 38.1 597.8 38.8Q597.5 39.4 597.5 40.4L597.5 40.4Q597.5 41.3 597.8 41.9Q598.1 42.6 598.7 42.9Q599.2 43.2 599.9 43.2L599.9 43.2Q600.5 43.2 600.9 43.0Q601.4 42.7 601.7 42.2L601.7 42.2Q601.9 41.8 601.9 41.2L601.9 41.2L600.0 41.2L600.0 40.3L602.8 40.3L602.8 41.1Q602.8 42.0 602.5 42.7Q602.1 43.4 601.4 43.7Q600.7 44.1 599.9 44.1ZM605.1 44L604.2 44L604.2 38.5L605.1 38.5L605.1 44ZM604.7 37.6L604.7 37.6Q604.4 37.6 604.2 37.5Q604.1 37.3 604.1 37.1L604.1 37.1Q604.1 36.8 604.2 36.7Q604.4 36.5 604.7 36.5L604.7 36.5Q604.9 36.5 605.1 36.7Q605.3 36.8 605.3 37.1L605.3 37.1Q605.3 37.3 605.1 37.5Q604.9 37.6 604.7 37.6ZM607.7 38.5L608.8 38.5L608.8 39.3L607.7 39.3L607.7 42.6Q607.7 43.0 607.8 43.1Q608.0 43.3 608.3 43.3L608.3 43.3Q608.4 43.3 608.5 43.3Q608.7 43.2 608.8 43.2L608.8 43.2L609.0 44.0Q608.8 44.0 608.6 44.0Q608.5 44.1 608.3 44.1L608.3 44.1Q607.6 44.1 607.2 43.7Q606.8 43.3 606.8 42.7L606.8 42.7L606.8 39.3L606.0 39.3L606.0 38.5L606.8 38.5L606.8 37.2L607.7 37.2L607.7 38.5Z "/></g></svg>