<!-- Generated by readme-aura https://github.com/collectioneur/readme-aura -->
<svg width="150" height="44" viewBox="0 0 150 44" xmlns="http://www.w3.org/2000/svg"><defs><clipPath id="satori_bc-id"><rect x="0" y="0" width="150" height="44"/></clipPath></defs><mask id="satori_om-id"><rect x="1" y="1" width="148" height="42" fill="#fff"/><path width="150" height="44" fill="none" stroke="#000" stroke-width="2" d="M0,0 A0,0 0 0 1 0,0 h150 a0,0 0 0 1 0,0 v44 a0,0 0 0 1 0,0 h-150 a0,0 0 0 1 0,0 v-44 A0,0 0 0 1 0,0"/></mask><rect x="0" y="0" width="150" height="44" fill="#080808"/><path width="150" height="44" clip-path="url(#satori_bc-id)" fill="none" stroke="rgba(103,232,249,.3)" stroke-width="2" d="M0,0 A0,0 0 0 1 0,0 h150 a0,0 0 0 1 0,0 v44 a0,0 0 0 1 0,0 h-150 a0,0 0 0 1 0,0 v-44 A0,0 0 0 1 0,0"/><mask id="satori_om-id-0"><rect x="44" y="16" width="63" height="13" fill="#fff"/></mask><g  ><path fill="#67E8F9" d="M49.7 27L45.0 27L45.0 19.0L46.0 19.0L46.0 26.1L49.7 26.1L49.7 27ZM52.7 19.0L53.7 19.0L53.7 27L52.7 27L52.7 19.0ZM58.2 27L57.1 27L57.1 19.0L58.3 19.0L61.6 24.1Q61.7 24.3 61.9 24.6Q62.1 24.9 62.3 25.3L62.3 25.3Q62.4 25.5 62.5 25.8L62.5 25.8Q62.5 25.5 62.5 25.3L62.5 25.3Q62.5 24.9 62.5 24.5Q62.5 24.2 62.5 23.9L62.5 23.9L62.5 19.0L63.5 19.0L63.5 27L62.3 27L59.4 22.4Q59.2 22.1 59.0 21.8Q58.8 21.5 58.5 21.0L58.5 21.0Q58.3 20.7 58.1 20.2L58.1 20.2Q58.1 20.6 58.1 21.0L58.1 21.0Q58.1 21.5 58.2 21.8Q58.2 22.2 58.2 22.4L58.2 22.4L58.2 27ZM67.9 27L66.9 27L66.9 19.0L67.9 19.0L67.9 21.7L67.9 23.2Q68.1 23.1 68.2 22.9L68.2 22.9Q68.4 22.6 68.7 22.2Q69.0 21.9 69.3 21.6L69.3 21.6L71.7 19.0L73.0 19.0L69.8 22.5L73.0 27L71.8 27L69.1 23.2L67.9 24.4L67.9 27ZM80.7 27L75.8 27L75.8 19.0L80.7 19.0L80.7 19.9L76.8 19.9L76.8 22.5L80.4 22.5L80.4 23.4L76.8 23.4L76.8 26.1L80.7 26.1L80.7 27ZM86.4 27L86.4 27L83.9 27L83.9 19.0L86.5 19.0Q87.7 19.0 88.5 19.5Q89.4 20.0 89.8 20.8Q90.2 21.7 90.2 23.0L90.2 23.0Q90.2 24.2 89.8 25.1Q89.4 26.0 88.5 26.5Q87.6 27 86.4 27ZM85.0 19.9L85.0 26.1L86.4 26.1Q87.3 26.1 88.0 25.7Q88.6 25.4 88.9 24.7Q89.3 24.0 89.3 23.0L89.3 23.0Q89.3 22.0 88.9 21.3Q88.6 20.6 88.0 20.3Q87.4 19.9 86.5 19.9L86.5 19.9L85.0 19.9ZM93.4 19.0L94.4 19.0L94.4 27L93.4 27L93.4 19.0ZM98.8 27L97.8 27L97.8 19.0L99.0 19.0L102.3 24.1Q102.4 24.3 102.6 24.6Q102.8 24.9 103.0 25.3L103.0 25.3Q103.1 25.5 103.2 25.8L103.2 25.8Q103.2 25.5 103.2 25.3L103.2 25.3Q103.2 24.9 103.2 24.5Q103.2 24.2 103.2 23.9L103.2 23.9L103.2 19.0L104.2 19.0L104.2 27L103.0 27L100.1 22.4Q99.9 22.1 99.7 21.8Q99.5 21.5 99.2 21.0L99.2 21.0Q99.0 20.7 98.8 20.2L98.8 20.2Q98.8 20.6 98.8 21.0L98.8 21.0Q98.8 21.5 98.8 21.8Q98.8 22.2 98.8 22.4L98.8 22.4L98.8 27Z "/></g></svg>